# xmcd
#
# Track frame offsets:
#	180
#	14159
#	28516
#	41526
#	54394
#	70092
#	85069
#	95847
#	108724
#	133547
#	144755
#	154471
#
# Disc length: 2195 seconds
#
# Revision: 0
# Processed by: cddbd v1.4PL0 Copyright (c) Steve Scherf et al.
# Submitted via: dBpowerAMP V4.0
#
DISCID=a208910c
DTITLE=Agustin Lara - Agustin Lara e Interpretes
DYEAR=1900
DGENRE=
TTITLE0=Mujer
TTITLE1=Piensa en mi
TTITLE2=Solamente una vez
TTITLE3=Humo en los ojos
TTITLE4=Maria Bonita
TTITLE5=Granada
TTITLE6=Te quiero
TTITLE7=Se me hizo facil
TTITLE8=Noche de ronda
TTITLE9=Rival
TTITLE10=Farolito
TTITLE11=Amor de mis amores
EXTD=
EXTT0=
EXTT1=
EXTT2=
EXTT3=
EXTT4=
EXTT5=
EXTT6=
EXTT7=
EXTT8=
EXTT9=
EXTT10=
EXTT11=
PLAYORDER=
